HIERARCHY
ROOT Hips
{
	OFFSET 0.00000 0.00000 0.00000
	CHANNELS 6 Xposition Yposition Zposition Zrotation Yrotation Xrotation 
	JOINT LHipJoint
	{
		OFFSET 0 0 0
		CHANNELS 3 Zrotation Yrotation Xrotation
		JOINT LeftUpLeg
		{
			OFFSET 1.84395 -1.68683 0.74144
			CHANNELS 3 Zrotation Yrotation Xrotation
			JOINT LeftLeg
			{
				OFFSET 2.27037 -6.23779 0.00000
				CHANNELS 3 Zrotation Yrotation Xrotation
				JOINT LeftFoot
				{
					OFFSET 2.56918 -7.05877 0.00000
					CHANNELS 3 Zrotation Yrotation Xrotation
					JOINT LeftToeBase
					{
						OFFSET 0.22276 -0.61202 1.71784
						CHANNELS 3 Zrotation Yrotation Xrotation
						End Site
						{
							OFFSET 0.00000 -0.00000 0.91613
						}
					}
				}
			}
		}
	}
	JOINT RHipJoint
	{
		OFFSET 0 0 0
		CHANNELS 3 Zrotation Yrotation Xrotation
		JOINT RightUpLeg
		{
			OFFSET -1.76833 -1.68684 0.74144
			CHANNELS 3 Zrotation Yrotation Xrotation
			JOINT RightLeg
			{
				OFFSET -2.49360 -6.85110 0.00000
				CHANNELS 3 Zrotation Yrotation Xrotation
				JOINT RightFoot
				{
					OFFSET -2.55538 -7.02085 0.00000
					CHANNELS 3 Zrotation Yrotation Xrotation
					JOINT RightToeBase
					{
						OFFSET -0.21516 -0.59115 1.68050
						CHANNELS 3 Zrotation Yrotation Xrotation
						End Site
						{
							OFFSET -0.00000 -0.00000 0.89604
						}
					}
				}
			}
		}
	}
	JOINT LowerBack
	{
		OFFSET 0 0 0
		CHANNELS 3 Zrotation Yrotation Xrotation
		JOINT Spine
		{
			OFFSET 0.06382 1.72312 -0.19613
			CHANNELS 3 Zrotation Yrotation Xrotation
			JOINT Spine1
			{
				OFFSET -0.00055 1.73507 0.23859
				CHANNELS 3 Zrotation Yrotation Xrotation
				JOINT Neck
				{
					OFFSET 0 0 0
					CHANNELS 3 Zrotation Yrotation Xrotation
					JOINT Neck1
					{
						OFFSET 0.03638 1.65562 0.09633
						CHANNELS 3 Zrotation Yrotation Xrotation
						JOINT Head
						{
							OFFSET 0.06388 1.62807 -0.32386
							CHANNELS 3 Zrotation Yrotation Xrotation
							End Site
							{
								OFFSET 0.00995 1.67644 -0.12021
							}
						}
					}
				}
				JOINT LeftShoulder
				{
					OFFSET 0 0 0
					CHANNELS 3 Zrotation Yrotation Xrotation
					JOINT LeftArm
					{
						OFFSET 3.09648 1.42991 0.28122
						CHANNELS 3 Zrotation Yrotation Xrotation
						JOINT LeftForeArm
						{
							OFFSET 5.11878 -0.00000 -0.00000
							CHANNELS 3 Zrotation Yrotation Xrotation
							JOINT LeftHand
							{
								OFFSET 3.59971 -0.00000 0.00000
								CHANNELS 3 Zrotation Yrotation Xrotation
								JOINT LeftFingerBase
								{
									OFFSET 0 0 0
									CHANNELS 3 Zrotation Yrotation Xrotation
									JOINT LeftHandIndex1
									{
										OFFSET 0.62877 -0.00000 0.00000
										CHANNELS 3 Zrotation Yrotation Xrotation
										End Site
										{
											OFFSET 0.50693 -0.00000 0.00000
										}
									}
								}
								JOINT LThumb
								{
									OFFSET 0 0 0
									CHANNELS 3 Zrotation Yrotation Xrotation
									End Site
									{
										OFFSET 0.51467 -0.00000 0.51467
									}
								}
							}
						}
					}
				}
				JOINT RightShoulder
				{
					OFFSET 0 0 0
					CHANNELS 3 Zrotation Yrotation Xrotation
					JOINT RightArm
					{
						OFFSET -3.33565 1.14597 0.05047
						CHANNELS 3 Zrotation Yrotation Xrotation
						JOINT RightForeArm
						{
							OFFSET -5.49020 -0.00000 0.00000
							CHANNELS 3 Zrotation Yrotation Xrotation
							JOINT RightHand
							{
								OFFSET -3.20659 -0.00000 -0.00000
								CHANNELS 3 Zrotation Yrotation Xrotation
								JOINT RightFingerBase
								{
									OFFSET 0 0 0
									CHANNELS 3 Zrotation Yrotation Xrotation
									JOINT RightHandIndex1
									{
										OFFSET -0.69188 -0.00000 0.00000
										CHANNELS 3 Zrotation Yrotation Xrotation
										End Site
										{
											OFFSET -0.55781 -0.00000 0.00000
										}
									}
								}
								JOINT RThumb
								{
									OFFSET 0 0 0
									CHANNELS 3 Zrotation Yrotation Xrotation
									End Site
									{
										OFFSET -0.56633 -0.00000 0.56633
									}
								}
							}
						}
					}
				}
			}
		}
	}
}
MOTION
Frames: 13
Frame Time: .0083333
1.0114 17.5936 8.4450 -6.8719 10.8649 7.9271 0.0000 0.0000 0.0000 -13.4609 -36.2016 12.1006 0.0160 -0.8174 -2.2466 -3.5344 31.4721 -18.4437 0.2684 -3.3328 -9.2068 0.0000 0.0000 0.0000 24.8538 21.3853 2.9957 -0.1494 -2.4909 6.8643 0.6178 -20.7389 -24.2052 -0.0597 -1.5770 4.3381 7.9516 -0.1418 2.3832 4.9746 0.9914 -9.3307 0.8304 0.0690 -11.4022 -0.4759 -3.6229 -15.2318 6.3825 -5.1431 2.2153 1.8240 -2.2320 3.6672 0.0000 -0.0000 0.0000 -79.2667 -13.4648 85.0698 115.5021 -57.3940 -81.8922 -0.0000 -0.0000 5.9442 64.9609 -29.6293 -46.6232 -7.1250 0.0000 -0.0000 18.3040 -21.1753 -24.6494 0.0000 -0.0000 0.0000 83.1163 11.0134 71.1443 -132.9549 51.7319 -96.1662 0.0000 -0.0000 -16.8990 -21.3529 -47.6750 16.1215 7.1250 -0.0000 -0.0000 40.3195 -76.9284 -31.0718
1.0587 17.5745 8.4433 -6.2961 9.2549 8.3257 0.0000 0.0000 0.0000 -14.4221 -35.8627 12.4587 0.0195 -0.9016 -2.4781 -3.6940 32.1920 -19.6629 0.1762 -2.7042 -7.4564 0.0000 0.0000 0.0000 23.9155 22.2520 2.7169 -0.1598 -2.5752 7.0983 0.6074 -20.3531 -23.6223 -0.0339 -1.1881 3.2665 8.2949 -0.3653 2.3569 4.9650 0.6716 -9.0003 0.6563 -0.1079 -11.0228 0.5656 -2.8905 -15.6278 5.3050 -4.2683 1.7342 1.3366 -1.8454 3.4694 -0.0000 -0.0000 0.0000 -79.9068 -11.5587 85.5869 113.8611 -57.7354 -80.5072 -0.0000 -0.0000 6.1181 64.9376 -29.5110 -46.4889 -7.1250 0.0000 -0.0000 18.3338 -21.0154 -24.6658 -0.0000 -0.0000 0.0000 83.0819 9.3484 70.9529 -132.4571 51.9551 -95.7747 0.0000 -0.0000 -17.8619 -21.6955 -48.4120 16.5716 7.1250 -0.0000 -0.0000 42.6127 -77.5295 -33.4332
1.1032 17.5576 8.4459 -5.7794 7.7108 8.7582 0.0000 0.0000 0.0000 -15.3284 -35.7304 12.8485 0.0241 -1.0017 -2.7536 -3.8776 33.0133 -21.0654 0.0930 -1.9664 -5.4128 0.0000 0.0000 0.0000 23.0098 23.1756 2.3663 -0.1713 -2.6665 7.3516 0.5891 -19.9564 -23.0977 -0.0179 -0.8646 2.3763 8.5750 -0.7799 2.0963 4.9329 0.0623 -8.7359 0.5234 -0.4193 -10.5987 1.7643 -2.0433 -15.5862 4.3979 -3.2861 1.2228 0.8955 -1.4055 3.2037 -0.0000 0.0000 0.0000 -79.8107 -10.2515 85.9700 113.1990 -57.8654 -79.9470 -0.0000 -0.0000 4.2480 64.6648 -30.2990 -46.8192 -7.1250 0.0000 -0.0000 17.9073 -21.6976 -24.1570 -0.0000 0.0000 0.0000 82.9590 7.9542 71.1137 -132.5452 51.9159 -95.8441 0.0000 -0.0000 -18.4992 -21.8293 -49.0871 16.8415 7.1250 -0.0000 -0.0000 45.0961 -77.9825 -35.8863
1.1460 17.5491 8.4516 -5.3744 6.1813 9.2243 0.0000 0.0000 0.0000 -16.1178 -35.7433 13.2020 0.0288 -1.0948 -3.0097 -4.1094 33.9864 -22.5412 0.0371 -1.2435 -3.4190 0.0000 0.0000 0.0000 22.1386 23.9729 1.8384 -0.1843 -2.7652 7.6258 0.5644 -19.4180 -22.3884 -0.0034 -0.3778 1.0380 7.5669 -1.2682 2.3660 5.8086 -0.5451 -9.0142 2.1241 -0.5961 -11.0830 2.3916 -1.1639 -15.0606 2.9172 -2.1381 1.3102 0.3822 -0.9060 3.0849 -0.0000 -0.0000 0.0000 -80.8649 -9.0203 86.4066 112.6887 -57.9626 -79.5146 -0.0000 -0.0000 3.9633 65.2040 -30.8749 -48.0047 -7.1250 0.0000 -0.0000 17.9795 -22.8271 -24.4392 -0.0000 -0.0000 0.0000 81.0123 6.6522 71.4199 -133.0447 51.6912 -96.2367 0.0000 -0.0000 -19.4625 -21.5938 -48.5140 16.5152 7.1250 -0.0000 -0.0000 43.0932 -77.5498 -33.8497
1.1871 17.5534 8.4592 -5.1417 4.6339 9.7385 0.0000 0.0000 0.0000 -16.7687 -35.9995 13.5930 0.0335 -1.1819 -3.2495 -4.4562 35.2748 -24.0827 0.0105 -0.6619 -1.8189 0.0000 0.0000 0.0000 21.3920 24.7517 1.1635 -0.1992 -2.8740 7.9282 0.5253 -18.7383 -21.5890 -0.0003 0.1063 -0.2921 7.6538 -1.6468 2.0256 6.0454 -1.0684 -9.1387 2.3933 -0.8493 -11.0331 3.1724 -0.4133 -14.6661 1.9694 -1.2264 1.6722 -0.0016 -0.4876 3.1215 0.0000 -0.0000 0.0000 -80.6937 -9.3372 87.1243 113.0133 -57.9011 -79.7896 -0.0000 -0.0000 4.5502 66.0628 -30.9547 -49.2044 -7.1250 0.0000 -0.0000 18.4032 -23.6783 -25.1900 0.0000 -0.0000 0.0000 79.9777 6.3872 71.2254 -133.8360 51.3262 -96.8560 0.0000 -0.0000 -19.5169 -20.3571 -48.8633 15.6130 7.1250 -0.0000 -0.0000 45.5500 -77.2517 -35.6561
1.2328 17.5651 8.4662 -5.5135 3.2164 10.0608 0.0000 0.0000 0.0000 -16.8620 -36.2588 14.1671 0.0387 -1.2701 -3.4922 -4.8132 36.5508 -25.7081 0.0002 -0.0859 -0.2361 0.0000 0.0000 0.0000 21.3995 25.2965 0.6278 -0.2108 -2.9562 8.1568 0.4507 -17.8830 -20.9025 -0.0028 0.3417 -0.9389 8.5003 -2.0040 1.8669 6.3363 -1.4733 -9.2936 2.3032 -1.1098 -11.1655 4.0468 0.3356 -14.1109 0.7863 -0.3013 2.1461 -0.4810 -0.0682 3.1888 -0.0000 0.0000 0.0000 -80.3278 -10.5142 88.1385 113.8225 -57.7431 -80.4746 -0.0000 -0.0000 4.8175 66.8822 -30.7185 -50.1138 -7.1250 0.0000 -0.0000 18.9281 -24.1590 -26.0395 -0.0000 0.0000 0.0000 78.9967 6.9101 70.8356 -134.7732 50.8791 -97.5854 0.0000 -0.0000 -18.9169 -20.7356 -48.6000 15.8532 7.1250 -0.0000 -0.0000 44.2257 -77.2520 -34.5501
1.2759 17.5831 8.4743 -5.8529 1.8327 10.3607 0.0000 0.0000 0.0000 -16.9891 -36.5356 14.6659 0.0408 -1.3037 -3.5847 -5.0711 37.6025 -27.6385 0.0113 0.6864 1.8862 0.0000 0.0000 0.0000 21.3944 25.7774 0.1934 -0.2140 -2.9784 8.2186 0.3924 -17.1083 -20.2200 -0.0056 0.4832 -1.3279 9.3020 -2.4276 1.7381 6.5360 -1.9715 -9.5128 2.1615 -1.4205 -11.4056 4.8138 1.1140 -13.5030 -0.0619 0.6757 2.8684 -0.8315 0.3980 3.3573 0.0000 -0.0000 0.0000 -79.7753 -12.1764 88.8301 115.1415 -57.4714 -81.5883 -0.0000 -0.0000 5.0329 67.3872 -30.1136 -50.3007 -7.1250 0.0000 -0.0000 19.4241 -23.9474 -26.7494 0.0000 -0.0000 0.0000 78.2754 8.5075 70.6798 -135.7035 50.4192 -98.3048 0.0000 -0.0000 -18.4324 -21.8277 -48.1603 16.6153 7.1250 -0.0000 -0.0000 41.5546 -77.4286 -32.4757
1.3042 17.6095 8.4874 -5.3104 0.2296 10.9215 0.0000 0.0000 0.0000 -17.9797 -37.0473 14.8533 0.0382 -1.2613 -3.4680 -5.2349 38.5420 -30.0101 0.0655 1.6510 4.5421 0.0000 0.0000 0.0000 20.2434 26.5792 -0.4485 -0.2130 -2.9715 8.1994 0.3735 -16.5826 -19.5303 -0.0092 0.6198 -1.7032 8.7917 -2.8242 1.1997 6.5623 -2.6069 -9.7827 2.5323 -1.6923 -11.3734 5.6936 1.8612 -13.0571 -0.8884 1.5979 3.8338 -1.2039 0.8469 3.6647 0.0000 -0.0000 0.0000 -79.2912 -14.2665 89.0336 116.4422 -57.1858 -82.6832 -0.0000 -0.0000 5.3094 67.8301 -29.7019 -50.5669 -7.1250 0.0000 -0.0000 19.8150 -23.9016 -27.3298 0.0000 -0.0000 0.0000 77.8691 10.6619 70.2125 -136.3189 50.1058 -98.7780 0.0000 -0.0000 -17.9938 -22.1983 -48.4622 16.9847 7.1250 -0.0000 -0.0000 42.3162 -77.7672 -33.3756
1.3281 17.6317 8.5033 -4.8651 -1.4543 11.3267 0.0000 0.0000 0.0000 -18.8627 -37.2253 15.0439 0.0360 -1.2249 -3.3678 -5.2865 39.2292 -32.1978 0.1504 2.4987 6.8860 0.0000 0.0000 0.0000 19.2718 27.3121 -0.9700 -0.2122 -2.9656 8.1830 0.3267 -15.9238 -18.9702 -0.0129 0.7323 -2.0126 8.2114 -3.1119 0.6957 6.5263 -3.1023 -9.9917 2.8456 -1.8925 -11.2738 6.8482 2.4538 -12.7565 -2.0312 2.3051 5.1835 -1.5631 1.1754 3.7089 0.0000 0.0000 0.0000 -78.7481 -16.4206 89.0751 117.6571 -56.9026 -83.7027 -0.0000 -0.0000 5.4748 67.8531 -29.6268 -50.5345 -7.1250 0.0000 -0.0000 19.8548 -23.8372 -27.3798 0.0000 0.0000 0.0000 77.6957 12.6036 69.2592 -136.8170 49.8466 -99.1595 0.0000 -0.0000 -17.3043 -22.4554 -49.2531 17.3863 7.1250 -0.0000 -0.0000 45.2182 -78.3373 -36.2841
1.3539 17.6445 8.5196 -4.9008 -3.0968 11.4276 0.0000 0.0000 0.0000 -19.3035 -36.9099 15.3911 0.0351 -1.2092 -3.3246 -5.2562 39.7033 -34.0637 0.2416 3.1633 8.7338 0.0000 0.0000 0.0000 19.0799 27.9409 -1.0489 -0.2084 -2.9391 8.1091 0.2700 -15.1766 -18.4248 -0.0196 0.9028 -2.4814 8.0761 -3.2339 0.4999 6.5922 -3.3023 -10.0496 3.0033 -1.9795 -11.2099 7.5435 2.8415 -12.5309 -2.9123 2.8075 5.9715 -1.9093 1.4054 3.9601 0.0000 0.0000 0.0000 -78.4722 -18.5757 89.4203 118.7327 -56.6383 -84.6024 -0.0000 -0.0000 5.1504 67.0408 -29.6378 -49.4144 -7.1250 0.0000 -0.0000 19.4107 -23.0761 -26.5943 0.0000 0.0000 0.0000 77.3367 14.3331 67.8084 -137.3252 49.5772 -99.5471 0.0000 -0.0000 -16.8902 -22.7449 -50.4371 17.9106 7.1250 -0.0000 -0.0000 50.2052 -79.0769 -41.2267
1.3779 17.6527 8.5356 -4.8751 -4.7770 11.4841 0.0000 0.0000 0.0000 -19.7931 -36.4286 15.7030 0.0348 -1.2035 -3.3090 -5.1235 40.0198 -35.9312 0.3691 3.9021 10.8015 0.0000 0.0000 0.0000 18.8621 28.5973 -1.0402 -0.2039 -2.9078 8.0221 0.2289 -14.4658 -17.7788 -0.0308 1.1324 -3.1131 7.8541 -3.2793 0.4295 6.7200 -3.3846 -10.0827 3.2697 -1.9973 -11.1799 7.6709 3.1828 -12.5521 -3.6241 3.3196 6.7735 -2.1092 1.6319 4.2518 -0.0000 0.0000 0.0000 -78.5929 -20.3704 89.8683 119.6202 -56.4103 -85.3427 -0.0000 -0.0000 4.6477 66.2390 -29.5284 -48.2274 -7.1250 0.0000 -0.0000 19.0195 -22.2040 -25.8717 -0.0000 0.0000 0.0000 76.8610 15.8503 65.9683 -137.5399 49.4617 -99.7105 0.0000 -0.0000 -17.1888 -21.9020 -51.5757 17.4828 7.1250 -0.0000 -0.0000 56.1943 -79.2145 -46.6641
1.3963 17.6581 8.5517 -4.7996 -6.6081 11.5150 0.0000 0.0000 0.0000 -20.4231 -35.9968 16.1805 0.0356 -1.2176 -3.3476 -4.9099 40.3427 -38.0928 0.5555 4.7742 13.2657 0.0000 0.0000 0.0000 18.5860 29.2286 -1.1371 -0.2066 -2.9264 8.0740 0.1798 -13.6142 -17.0534 -0.0451 1.3712 -3.7709 7.8896 -3.4297 0.4535 6.6275 -3.5917 -10.2137 3.1893 -2.1137 -11.3572 7.9627 3.6905 -12.1936 -4.3114 4.0605 7.2518 -2.3140 1.9741 4.4040 -0.0000 0.0000 0.0000 -78.2578 -20.9602 89.8643 120.5147 -56.1712 -86.0868 -0.0000 -0.0000 4.6039 66.1119 -29.7507 -48.2505 -7.1250 0.0000 -0.0000 18.8717 -22.3464 -25.6762 -0.0000 0.0000 0.0000 77.1236 16.6475 65.2338 -137.3894 49.5428 -99.5960 0.0000 -0.0000 -18.0247 -23.6413 -50.2137 18.5920 7.1250 -0.0000 -0.0000 48.5042 -79.3485 -39.9739
1.4079 17.6600 8.5703 -4.6736 -8.6227 11.4583 0.0000 0.0000 0.0000 -21.2412 -35.5465 16.8589 0.0364 -1.2310 -3.3846 -4.5286 40.5879 -40.6499 0.7975 5.6999 15.9161 0.0000 0.0000 0.0000 18.2958 29.8651 -1.2597 -0.2159 -2.9911 8.2540 0.1169 -12.5933 -16.3210 -0.0650 1.6450 -4.5255 7.9598 -3.6277 0.4639 6.3846 -3.8785 -10.3246 2.9327 -2.2808 -11.5179 8.6387 4.2662 -11.6669 -5.0697 4.8590 7.6614 -2.5996 2.3530 4.5302 0.0000 0.0000 0.0000 -77.7445 -20.6134 89.4607 121.2689 -55.9622 -86.7125 -0.0000 -0.0000 5.3890 66.2270 -30.6150 -49.1419 -7.1250 0.0000 -0.0000 18.6172 -23.4433 -25.4712 0.0000 0.0000 0.0000 77.9953 16.7395 65.0816 -137.1286 49.6820 -99.3973 0.0000 -0.0000 -17.6973 -21.9673 -52.0650 17.6477 7.1250 -0.0000 -0.0000 58.6303 -79.4206 -49.0592
